<?xml version="1.0" encoding="us-ascii" standalone="no"?><svg xmlns="http://www.w3.org/2000/svg" xmlns:xlink="http://www.w3.org/1999/xlink" contentStyleType="text/css" height="1261px" preserveAspectRatio="none" style="width:1289px;height:1261px;background:#DDDDDD;" version="1.1" viewBox="0 0 1289 1261" width="1289px" zoomAndPan="magnify"><defs/><g><rect fill="#DDDDDD" height="1261" style="stroke:none;stroke-width:1.0;" width="1289" x="0" y="0"/><!--cluster Sistema LTI--><g id="cluster_Sistema LTI"><rect fill="none" height="1088" rx="3.5" ry="3.5" style="stroke:#454645;stroke-width:1.0;" width="872.31" x="148" y="167.7"/><text fill="#000000" font-family="sans-serif" font-size="14" font-weight="bold" lengthAdjust="spacing" textLength="90" x="539.155" y="182.6951">Sistema LTI</text></g><g id="elem_UC1"><ellipse cx="361.8052" cy="327.695" fill="#F1F1F1" rx="125.4752" ry="27.495" style="stroke:#181818;stroke-width:0.5;"/><text fill="#000000" font-family="sans-serif" font-size="14" lengthAdjust="spacing" textLength="219" x="252.3052" y="330.5417">UC1: Enviar Solicitud de Empleo</text></g><g id="elem_UC14"><ellipse cx="361.8053" cy="233.6971" fill="#F1F1F1" rx="143.5353" ry="31.1071" style="stroke:#181818;stroke-width:0.5;"/><text fill="#000000" font-family="sans-serif" font-size="14" lengthAdjust="spacing" textLength="257" x="233.3053" y="236.5437">UC14: Consultar vacantes publicadas</text></g><g id="elem_UC2"><ellipse cx="361.8051" cy="531.695" fill="#F1F1F1" rx="104.0751" ry="23.215" style="stroke:#181818;stroke-width:0.5;"/><text fill="#000000" font-family="sans-serif" font-size="14" lengthAdjust="spacing" textLength="173" x="275.3051" y="534.5417">UC2: Gestionar Vacantes</text></g><g id="elem_UC11"><ellipse cx="843.4571" cy="434.6974" fill="#F1F1F1" rx="101.3371" ry="22.6674" style="stroke:#181818;stroke-width:0.5;"/><text fill="#000000" font-family="sans-serif" font-size="14" lengthAdjust="spacing" textLength="167" x="759.9571" y="437.5441">UC11: Publicar vacantes</text></g><g id="elem_UC3"><ellipse cx="361.8142" cy="619.7008" fill="#F1F1F1" rx="137.8042" ry="29.9608" style="stroke:#181818;stroke-width:0.5;"/><text fill="#000000" font-family="sans-serif" font-size="14" lengthAdjust="spacing" textLength="245" x="239.3142" y="622.5475">UC3: Revisar Solicitudes de Empleo</text></g><g id="elem_UC12"><ellipse cx="843.4586" cy="526.6997" fill="#F1F1F1" rx="160.8486" ry="34.5697" style="stroke:#181818;stroke-width:0.5;"/><text fill="#000000" font-family="sans-serif" font-size="14" lengthAdjust="spacing" textLength="293" x="696.9586" y="529.5464">UC12: Realizar seguimiento de candidatos</text></g><g id="elem_UC13"><ellipse cx="843.4596" cy="619.6999" fill="#F1F1F1" rx="105.4496" ry="23.4899" style="stroke:#181818;stroke-width:0.5;"/><text fill="#000000" font-family="sans-serif" font-size="14" lengthAdjust="spacing" textLength="176" x="755.4596" y="622.5466">UC13: Evaluar candidatos</text></g><g id="elem_UC4"><ellipse cx="361.8143" cy="709.6989" fill="#F1F1F1" rx="111.4443" ry="24.6889" style="stroke:#181818;stroke-width:0.5;"/><text fill="#000000" font-family="sans-serif" font-size="14" lengthAdjust="spacing" textLength="189" x="267.3143" y="712.5455">UC4: Programar Entrevistas</text></g><g id="elem_UC5"><ellipse cx="361.8138" cy="796.7008" fill="#F1F1F1" rx="125.0038" ry="27.4008" style="stroke:#181818;stroke-width:0.5;"/><text fill="#000000" font-family="sans-serif" font-size="14" lengthAdjust="spacing" textLength="218" x="252.8138" y="799.5474">UC5: Generar Oferta de Empleo</text></g><g id="elem_UC6"><ellipse cx="361.8056" cy="886.6971" fill="#F1F1F1" rx="127.8356" ry="27.9671" style="stroke:#181818;stroke-width:0.5;"/><text fill="#000000" font-family="sans-serif" font-size="14" lengthAdjust="spacing" textLength="224" x="249.8056" y="889.5438">UC6: Generar Informes y An&#225;lisis</text></g><g id="elem_UC7"><ellipse cx="361.8139" cy="1206.6968" fill="#F1F1F1" rx="153.1339" ry="33.0268" style="stroke:#181818;stroke-width:0.5;"/><text fill="#000000" font-family="sans-serif" font-size="14" lengthAdjust="spacing" textLength="277" x="223.3139" y="1209.5435">UC7: Integraci&#243;n con Sistemas Externos</text></g><g id="elem_UC8"><ellipse cx="361.8095" cy="1099.7039" fill="#F1F1F1" rx="181.2195" ry="38.6439" style="stroke:#181818;stroke-width:0.5;"/><text fill="#000000" font-family="sans-serif" font-size="14" lengthAdjust="spacing" textLength="335" x="194.3095" y="1102.5506">UC8: Configuraci&#243;n y Mantenimiento del Sistema</text></g><g id="elem_UC9"><ellipse cx="361.808" cy="431.7016" fill="#F1F1F1" rx="197.808" ry="41.9616" style="stroke:#181818;stroke-width:0.5;"/><text fill="#000000" font-family="sans-serif" font-size="14" lengthAdjust="spacing" textLength="369" x="177.308" y="434.5483">UC9: Asistencia de IA para Candidatos y Reclutadores</text></g><g id="elem_UC10"><ellipse cx="361.8078" cy="987.6956" fill="#F1F1F1" rx="177.3278" ry="37.8656" style="stroke:#181818;stroke-width:0.5;"/><text fill="#000000" font-family="sans-serif" font-size="14" lengthAdjust="spacing" textLength="327" x="198.3078" y="990.5422">UC10: Autenticaci&#243;n y Autorizaci&#243;n de Usuarios</text></g><!--entity Candidato--><g id="elem_Candidato"><ellipse cx="53.5" cy="350.05" fill="#454645" rx="8" ry="8" style="stroke:#454645;stroke-width:0.5;"/><path d="M53.5,358.05 L53.5,385.05 M40.5,366.05 L66.5,366.05 M53.5,385.05 L40.5,400.05 M53.5,385.05 L66.5,400.05 " fill="none" style="stroke:#454645;stroke-width:0.5;"/><text fill="#454645" font-family="sans-serif" font-size="14" lengthAdjust="spacing" textLength="70" x="18.5" y="414.5451">Candidato</text></g><!--entity Reclutador--><g id="elem_Reclutador"><ellipse cx="53.5" cy="680.05" fill="#454645" rx="8" ry="8" style="stroke:#454645;stroke-width:0.5;"/><path d="M53.5,688.05 L53.5,715.05 M40.5,696.05 L66.5,696.05 M53.5,715.05 L40.5,730.05 M53.5,715.05 L66.5,730.05 " fill="none" style="stroke:#454645;stroke-width:0.5;"/><text fill="#454645" font-family="sans-serif" font-size="14" lengthAdjust="spacing" textLength="75" x="16" y="744.5451">Reclutador</text></g><!--entity Administrador--><g id="elem_Administrador"><ellipse cx="53.5" cy="1070.05" fill="#454645" rx="8" ry="8" style="stroke:#454645;stroke-width:0.5;"/><path d="M53.5,1078.05 L53.5,1105.05 M40.5,1086.05 L66.5,1086.05 M53.5,1105.05 L40.5,1120.05 M53.5,1105.05 L66.5,1120.05 " fill="none" style="stroke:#454645;stroke-width:0.5;"/><text fill="#454645" font-family="sans-serif" font-size="14" lengthAdjust="spacing" textLength="95" x="6" y="1134.5451">Administrador</text></g><g id="elem_GMN37"><path d="M1067.31,410.5 L1067.31,430.7 L945.07,434.7 L1067.31,438.7 L1067.31,458.8984 A3.5,3.5 0 0 0 1070.81,462.3984 L1278.81,462.3984 A3.5,3.5 0 0 0 1282.31,458.8984 L1282.31,417 L1272.31,407 L1070.81,407 A3.5,3.5 0 0 0 1067.31,410.5 " fill="#90EE90" style="stroke:#454645;stroke-width:1.0;"/><path d="M1272.31,407 L1272.31,415.25 A1.75,1.75 0 0 0 1274.06,417 L1282.31,417 L1272.31,407 " fill="#90EE90" style="stroke:#454645;stroke-width:1.0;"/><text fill="#454645" font-family="sans-serif" font-size="13" lengthAdjust="spacing" textLength="172" x="1073.31" y="424.0669">La publicaci&#243;n de vacantes</text><text fill="#454645" font-family="sans-serif" font-size="13" lengthAdjust="spacing" textLength="155" x="1073.31" y="439.1997">es un paso fundamental</text><text fill="#454645" font-family="sans-serif" font-size="13" lengthAdjust="spacing" textLength="194" x="1073.31" y="454.3325">en el proceso de contrataci&#243;n.</text></g><g id="elem_GMN40"><path d="M738.96,9.5 L738.96,57.8984 A3.5,3.5 0 0 0 742.46,61.3984 L944.46,61.3984 A3.5,3.5 0 0 0 947.96,57.8984 L947.96,16 L937.96,6 L742.46,6 A3.5,3.5 0 0 0 738.96,9.5 " fill="#90EE90" style="stroke:#454645;stroke-width:1.0;"/><path d="M937.96,6 L937.96,14.25 A1.75,1.75 0 0 0 939.71,16 L947.96,16 L937.96,6 " fill="#90EE90" style="stroke:#454645;stroke-width:1.0;"/><text fill="#454645" font-family="sans-serif" font-size="13" lengthAdjust="spacing" textLength="188" x="744.96" y="23.0669">El seguimiento de candidatos</text><text fill="#454645" font-family="sans-serif" font-size="13" lengthAdjust="spacing" textLength="179" x="744.96" y="38.1997">es esencial para un proceso</text><text fill="#454645" font-family="sans-serif" font-size="13" lengthAdjust="spacing" textLength="162" x="744.96" y="53.3325">de contrataci&#243;n eficiente.</text></g><g id="elem_GMN43"><path d="M742.46,99.5 L742.46,147.8984 A3.5,3.5 0 0 0 745.96,151.3984 L940.96,151.3984 A3.5,3.5 0 0 0 944.46,147.8984 L944.46,106 L934.46,96 L745.96,96 A3.5,3.5 0 0 0 742.46,99.5 " fill="#90EE90" style="stroke:#454645;stroke-width:1.0;"/><path d="M934.46,96 L934.46,104.25 A1.75,1.75 0 0 0 936.21,106 L944.46,106 L934.46,96 " fill="#90EE90" style="stroke:#454645;stroke-width:1.0;"/><text fill="#454645" font-family="sans-serif" font-size="13" lengthAdjust="spacing" textLength="181" x="748.46" y="113.0669">La evaluaci&#243;n de candidatos</text><text fill="#454645" font-family="sans-serif" font-size="13" lengthAdjust="spacing" textLength="150" x="748.46" y="128.1997">es crucial en el proceso</text><text fill="#454645" font-family="sans-serif" font-size="13" lengthAdjust="spacing" textLength="83" x="748.46" y="143.3325">de selecci&#243;n.</text></g><g id="elem_GMN46"><path d="M267.81,84.93 L267.81,148.4613 A3.5,3.5 0 0 0 271.31,151.9613 L357.81,151.9613 L361.81,202.16 L365.81,151.9613 L452.31,151.9613 A3.5,3.5 0 0 0 455.81,148.4613 L455.81,91.43 L445.81,81.43 L271.31,81.43 A3.5,3.5 0 0 0 267.81,84.93 " fill="#90EE90" style="stroke:#454645;stroke-width:1.0;"/><path d="M445.81,81.43 L445.81,89.68 A1.75,1.75 0 0 0 447.56,91.43 L455.81,91.43 L445.81,81.43 " fill="#90EE90" style="stroke:#454645;stroke-width:1.0;"/><text fill="#454645" font-family="sans-serif" font-size="13" lengthAdjust="spacing" textLength="155" x="273.81" y="98.4969">La consulta de vacantes</text><text fill="#454645" font-family="sans-serif" font-size="13" lengthAdjust="spacing" textLength="156" x="273.81" y="113.6297">publicadas permite a los</text><text fill="#454645" font-family="sans-serif" font-size="13" lengthAdjust="spacing" textLength="136" x="273.81" y="128.7625">candidatos encontrar</text><text fill="#454645" font-family="sans-serif" font-size="13" lengthAdjust="spacing" textLength="167" x="273.81" y="143.8953">oportunidades relevantes.</text></g><!--link Candidato to UC1--><g id="link_Candidato_UC1"><path d="M88.75,373.89 C130.27,366.84 196.1647,355.6545 255.5847,345.5645 " fill="none" id="Candidato-to-UC1" style="stroke:#454645;stroke-width:1.0;"/><polygon fill="#454645" points="261.5,344.56,251.9574,342.1232,256.5706,345.3971,253.2967,350.0103,261.5,344.56" style="stroke:#454645;stroke-width:1.0;"/></g><!--link Candidato to UC14--><g id="link_Candidato_UC14"><path d="M79.41,341.19 C94.55,320.8 115.64,297.08 140,282.7 C168.15,266.08 195.4893,256.42 227.4693,249.15 " fill="none" id="Candidato-to-UC14" style="stroke:#454645;stroke-width:1.0;"/><polygon fill="#454645" points="233.32,247.82,223.6572,245.9146,228.4444,248.9284,225.4306,253.7155,233.32,247.82" style="stroke:#454645;stroke-width:1.0;"/></g><!--link Reclutador to UC2--><g id="link_Reclutador_UC2"><path d="M68.33,671.18 C81.71,639.64 105.13,596.46 140,572.7 C174.23,549.37 212.1356,539.0785 251.7256,534.1685 " fill="none" id="Reclutador-to-UC2" style="stroke:#454645;stroke-width:1.0;"/><polygon fill="#454645" points="257.68,533.43,248.2561,530.5681,252.718,534.0454,249.2407,538.5073,257.68,533.43" style="stroke:#454645;stroke-width:1.0;"/></g><!--link UC2 to UC11--><g id="link_UC2_UC11"><path d="M440.14,516.06 C530.23,497.84 672.209,469.1291 761.379,451.0991 " fill="none" id="UC2-to-UC11" style="stroke:#454645;stroke-width:1.0;stroke-dasharray:7.0,7.0;"/><polygon fill="#454645" points="767.26,449.91,757.6458,447.773,762.3592,450.9009,759.2313,455.6143,767.26,449.91" style="stroke:#454645;stroke-width:1.0;"/><text fill="#000000" font-family="sans-serif" font-size="13" lengthAdjust="spacing" textLength="61" x="590.62" y="470.7669">&#171;include&#187;</text></g><!--link Reclutador to UC3--><g id="link_Reclutador_UC3"><path d="M91.11,689.28 C105.94,681.66 123.45,673.47 140,667.7 C175.56,655.31 209.6349,646.6781 245.6649,639.2081 " fill="none" id="Reclutador-to-UC3" style="stroke:#454645;stroke-width:1.0;"/><polygon fill="#454645" points="251.54,637.99,241.9154,635.9004,246.6441,639.005,243.5394,643.7338,251.54,637.99" style="stroke:#454645;stroke-width:1.0;"/></g><!--link UC3 to UC12--><g id="link_UC3_UC12"><path d="M466,599.69 C541.44,585.06 638.0697,566.3323 717.0697,551.0123 " fill="none" id="UC3-to-UC12" style="stroke:#454645;stroke-width:1.0;stroke-dasharray:7.0,7.0;"/><polygon fill="#454645" points="722.96,549.87,713.3631,547.6566,718.0514,550.8219,714.8861,555.5102,722.96,549.87" style="stroke:#454645;stroke-width:1.0;"/><text fill="#000000" font-family="sans-serif" font-size="13" lengthAdjust="spacing" textLength="60" x="591.12" y="561.7669">&#171;extend&#187;</text></g><!--link UC3 to UC13--><g id="link_UC3_UC13"><path d="M499.94,619.7 C575.52,619.7 661.89,619.7 731.64,619.7 " fill="none" id="UC3-to-UC13" style="stroke:#454645;stroke-width:1.0;stroke-dasharray:7.0,7.0;"/><polygon fill="#454645" points="737.64,619.7,728.64,615.7,732.64,619.7,728.64,623.7,737.64,619.7" style="stroke:#454645;stroke-width:1.0;"/><text fill="#000000" font-family="sans-serif" font-size="13" lengthAdjust="spacing" textLength="60" x="591.12" y="615.7669">&#171;extend&#187;</text></g><!--link Reclutador to UC4--><g id="link_Reclutador_UC4"><path d="M91.45,709.7 C130.59,709.7 188.3,709.7 243.94,709.7 " fill="none" id="Reclutador-to-UC4" style="stroke:#454645;stroke-width:1.0;"/><polygon fill="#454645" points="249.94,709.7,240.94,705.7,244.94,709.7,240.94,713.7,249.94,709.7" style="stroke:#454645;stroke-width:1.0;"/></g><!--link Reclutador to UC5--><g id="link_Reclutador_UC5"><path d="M91.49,730.45 C106.23,738.02 123.57,746.09 140,751.7 C177.49,764.49 213.9637,773.0895 251.5037,780.1595 " fill="none" id="Reclutador-to-UC5" style="stroke:#454645;stroke-width:1.0;"/><polygon fill="#454645" points="257.4,781.27,249.2958,775.6734,252.4864,780.3446,247.8152,783.5352,257.4,781.27" style="stroke:#454645;stroke-width:1.0;"/></g><!--link Reclutador to UC6--><g id="link_Reclutador_UC6"><path d="M69.49,748.2 C83.25,778.37 106.61,818.93 140,841.7 C168.77,861.32 198.3283,871.5953 232.3383,878.1453 " fill="none" id="Reclutador-to-UC6" style="stroke:#454645;stroke-width:1.0;"/><polygon fill="#454645" points="238.23,879.28,230.1489,873.6501,233.3202,878.3344,228.6359,881.5058,238.23,879.28" style="stroke:#454645;stroke-width:1.0;"/></g><!--link Administrador to UC7--><g id="link_Administrador_UC7"><path d="M101.21,1134.52 C113.37,1142.38 126.78,1150.06 140,1155.7 C171.03,1168.94 200.2032,1177.6927 233.0532,1185.2627 " fill="none" id="Administrador-to-UC7" style="stroke:#454645;stroke-width:1.0;"/><polygon fill="#454645" points="238.9,1186.61,231.0281,1180.6911,234.0277,1185.4872,229.2316,1188.4868,238.9,1186.61" style="stroke:#454645;stroke-width:1.0;"/></g><!--link Administrador to UC8--><g id="link_Administrador_UC8"><path d="M101.36,1099.7 C123.31,1099.7 145.01,1099.7 174.09,1099.7 " fill="none" id="Administrador-to-UC8" style="stroke:#454645;stroke-width:1.0;"/><polygon fill="#454645" points="180.09,1099.7,171.09,1095.7,175.09,1099.7,171.09,1103.7,180.09,1099.7" style="stroke:#454645;stroke-width:1.0;"/></g><!--link Candidato to UC9--><g id="link_Candidato_UC9"><path d="M88.75,385.51 C117.86,390.46 155.9446,396.9258 200.1246,404.4258 " fill="none" id="Candidato-to-UC9" style="stroke:#454645;stroke-width:1.0;"/><polygon fill="#454645" points="206.04,405.43,197.8364,399.9801,201.1105,404.5932,196.4975,407.8673,206.04,405.43" style="stroke:#454645;stroke-width:1.0;"/></g><!--link Reclutador to UC9--><g id="link_Reclutador_UC9"><path d="M58.91,671.26 C66.59,622.21 87.07,538.05 140,490.7 C156.93,475.55 171.7469,466.4274 193.2169,457.9774 " fill="none" id="Reclutador-to-UC9" style="stroke:#454645;stroke-width:1.0;"/><polygon fill="#454645" points="198.8,455.78,188.9604,455.354,194.1474,457.6111,191.8902,462.7982,198.8,455.78" style="stroke:#454645;stroke-width:1.0;"/></g><!--link Candidato to UC10--><g id="link_Candidato_UC10"><path d="M61.39,418.21 C70.8,471.19 87.96,569.54 101,653.7 C102.19,661.41 134.79,925.89 140,931.7 C156.43,950.03 172.3189,960.6349 195.4489,969.3949 " fill="none" id="Candidato-to-UC10" style="stroke:#454645;stroke-width:1.0;"/><polygon fill="#454645" points="201.06,971.52,194.0601,964.5917,196.3841,969.7491,191.2267,972.0731,201.06,971.52" style="stroke:#454645;stroke-width:1.0;"/></g><!--link Reclutador to UC10--><g id="link_Reclutador_UC10"><path d="M58.59,748.33 C65.95,798.09 86.09,883.87 140,931.7 C159.08,948.63 176.886,958.6291 201.346,967.0391 " fill="none" id="Reclutador-to-UC10" style="stroke:#454645;stroke-width:1.0;"/><polygon fill="#454645" points="207.02,968.99,199.8096,962.281,202.2917,967.3643,197.2084,969.8464,207.02,968.99" style="stroke:#454645;stroke-width:1.0;"/></g><!--link Administrador to UC10--><g id="link_Administrador_UC10"><path d="M101.29,1065.08 C113.45,1057.21 126.84,1049.48 140,1043.7 C168.15,1031.33 193.7689,1022.8322 223.8689,1014.8822 " fill="none" id="Administrador-to-UC10" style="stroke:#454645;stroke-width:1.0;"/><polygon fill="#454645" points="229.67,1013.35,219.9469,1011.7809,224.8358,1014.6268,221.9898,1019.5156,229.67,1013.35" style="stroke:#454645;stroke-width:1.0;"/></g><!--link UC12 to GMN40--><g id="link_UC12_GMN40"><path d="M700.44,510.48 C669.54,500.04 640.4,483.43 621.12,457.2 C573.6,392.56 572.77,160.22 621.12,96.2 C648.48,59.96 695.15,43.55 738.69,36.52 " fill="none" id="UC12-GMN40" style="stroke:#454645;stroke-width:1.0;stroke-dasharray:7.0,7.0;"/></g><!--link UC13 to GMN43--><g id="link_UC13_GMN43"><path d="M737.7,618.94 C694.39,612.67 648.18,597.04 621.12,561.2 C573.31,497.89 575.56,269.15 621.12,204.2 C648.64,164.96 697.31,144.77 742.1,134.41 " fill="none" id="UC13-GMN43" style="stroke:#454645;stroke-width:1.0;stroke-dasharray:7.0,7.0;"/></g><!--SRC=[ZLLBRjim4Dth55Fl4oIsyx4G130CemYGea7JTCzG8uS0HHhy64sB7gPdw15oiOv4Kaf4fQWtjcVcpPlFq-Y3Uy86mUddGcBjw0SOiNjoK0c3t0cjYe9nfmricAf4nPoE_xyWbzwnIfjeM5UDKC8wqzcA5ixKJYBCxicA3OFRhpSp-5a0VRn5pYpv7ZQd9MpLGJ03zreABfole4BODdk9UWRC0iLae6K96wsibuw01yQPScXXxnyf1QkOJS1bCOREI_Y8jcsDaDyYCeRFCnwgxYua7MXIxgogHKbZEGZxkXUgQjpD8cEPjq0cnGz2MjnvqGXKj0j2yZJtdZOladYt1oOzeVFmZ8r6TsVqph26uhVAcRParuziEOu_QmUcq53qvngDOrb3PsF8-G2vKRKs3KtX6TRgvRSKLYIcyp7iegHmXrGQ5oz_572j88h7mlQxGwFwlYx6uCjE4RNO-GH_Xa_jljGmJPdInIINuoIh4jQs3L5ST7tUh67F31latpOoQByNmofRoWcbyfJ8aNPIFMJGXhOS_bFw1qjB4yEoJe9SUpOuEhhkzPzPmwg6Qg8z28I-uVYuYpk54gwkG2WA9DBhwsdS8k8M2JSFEAJ9goh1NlaNK_uixJjLdasRWoZU79FekNZNSpavdjKqmMfwbYVJqT4-nKgkNqMXjCDuCtKzN8LRbevHl-jqFZe_FH1UaRIiXjghYZKa52Q3Im49TMyqHnjEWAQ7bBcGwRXePzsoHkv7xPnk8dbO_LQ-VqKIEzfEupB8kwqb47R-CIbWJTUCak6_wHUfT-pEKTzwJi-DxzZVD9kuBKha_z7jCj7n-2h8nZoy462FfX6KWO6CPGnLKHcXNzCvz5uRvnNvslDjg9f3btAevYy0]--></g></svg>